<svg width="184" height="40" viewBox="0 0 184 40" fill="none" xmlns="http://www.w3.org/2000/svg">
<g clip-path="url(#clip0_4265_5119)">
<path d="M20 40C31.0457 40 40 31.0457 40 20C40 8.9543 31.0457 0 20 0C8.9543 0 0 8.9543 0 20C0 31.0457 8.9543 40 20 40Z" fill="#0064F5"/>
<path d="M20 20H0V40H20V20Z" fill="black"/>
<path fill-rule="evenodd" clip-rule="evenodd" d="M19.9707 40H20V20H0C0 20 0 20 0 20C0 31.036 8.93848 39.9842 19.9707 40Z" fill="#001ED2"/>
<path fill-rule="evenodd" clip-rule="evenodd" d="M44 7.41181V0H52.2009V7.41181H44ZM59.2403 35.9136C56.5349 33.2082 55.1821 29.5177 55.1821 24.8422C55.1821 20.2486 56.5912 16.5568 59.3812 13.795C62.1712 11.0332 65.8912 9.65225 70.5976 9.65225C74.5712 9.65225 77.8121 10.6587 80.2921 12.6959C82.7721 14.733 84.2657 17.515 84.8575 21.0941H76.3748C75.6703 18.0746 73.613 16.3032 70.4848 16.3032C68.3712 16.3032 66.6803 17.0922 65.4121 18.6704C64.1439 20.2486 63.4958 22.3059 63.4958 24.8422C63.4958 27.3786 64.1439 29.4721 65.4121 31.014C66.6803 32.556 68.3712 33.3813 70.4848 33.3813C73.6412 33.3813 75.8112 31.5213 76.3748 28.4777H84.9139C84.3221 32.0568 82.7721 34.8468 80.2075 36.904C77.643 38.9613 74.3457 40.004 70.3157 40.004C65.6094 40 61.9176 38.6473 59.2403 35.9136ZM44 39.6618V9.98642H52.2009V39.6618H44ZM87.5751 9.98642V39.6618H95.7699V9.98642H87.5751ZM87.5751 0V7.41181H95.7699V0H87.5751Z" fill="black"/>
<path fill-rule="evenodd" clip-rule="evenodd" d="M102.77 10.1191V18.2174H104.286V14.9785H106.172C107.804 14.9785 109.135 14.3082 109.135 12.5488C109.135 10.8358 107.861 10.1191 106.172 10.1191H102.77ZM106.172 13.6942H104.286V11.4034H106.172C107.178 11.4034 107.581 11.8423 107.581 12.5488C107.581 13.2554 107.144 13.6942 106.172 13.6942ZM114.669 16.0031L115.474 18.2174H117.173L113.841 10.1191H112.126L108.793 18.2174H110.403L111.224 16.0031H114.669ZM114.19 14.7228H111.691L112.617 12.2006C112.75 11.8765 112.847 11.5987 112.952 11.2625C113.044 11.5967 113.137 11.8644 113.264 12.2006L114.19 14.7228ZM118.27 18.2174V10.1191H121.857C123.373 10.1191 124.474 10.8358 124.474 12.2489C124.474 13.358 123.699 13.9961 122.924 14.2256C123.85 14.3887 124.347 15.059 124.347 16.1017V18.2174H122.819V16.2406C122.819 15.2804 122.473 14.9322 121.489 14.9322H119.788V18.2174H118.27ZM119.786 13.6358H121.567C122.459 13.6358 122.91 13.2554 122.91 12.5247C122.91 11.7939 122.459 11.4034 121.567 11.4034H119.786V13.6358ZM102.77 20.9067V29.015H104.286V25.605H108.163V24.3207H104.286V22.191H108.382V20.9067H102.77ZM109.874 29.015V20.9067H113.461C114.977 20.9067 116.078 21.6253 116.078 23.0364C116.078 24.1476 115.303 24.7837 114.528 25.0152C115.454 25.1762 115.951 25.8486 115.951 26.8893V29.015H114.423V27.0362C114.423 26.076 114.077 25.7278 113.092 25.7278H111.392V29.015H109.874ZM111.39 24.4335H113.171C114.063 24.4335 114.514 24.051 114.514 23.3223C114.514 22.5936 114.063 22.199 113.171 22.199H111.39V24.4335ZM122.837 26.8007L123.643 29.015H125.344L122.02 20.9067H120.283L116.943 29.015H118.564L119.385 26.8007H122.837ZM122.358 25.5124H119.86L120.784 22.9901C120.919 22.6661 121.016 22.3883 121.12 22.0521C121.213 22.3863 121.305 22.654 121.432 22.9901L122.358 25.5124ZM126.431 29.015V20.9067H128.709L132.204 27.002C132.17 26.6538 132.157 26.2149 132.157 25.7942V20.9067H133.673V29.015H131.684L127.9 22.4084C127.936 22.785 127.952 23.1634 127.946 23.5417V29.015H126.431ZM139.273 20.6994C136.983 20.6994 135.247 22.2957 135.247 24.8985C135.247 27.6522 136.789 29.2163 139.193 29.2143C141.367 29.2143 142.718 27.9542 142.919 26.0801H141.403C141.343 26.605 141.087 27.0879 140.685 27.4312C140.284 27.7745 139.767 27.9528 139.239 27.93C137.828 27.93 136.809 26.7846 136.809 24.8985C136.809 23.0828 137.838 21.9837 139.273 21.9837C140.465 21.9837 141.16 22.7003 141.31 23.7531H142.883C142.675 21.8327 141.252 20.6994 139.273 20.6994ZM144.376 29.015V20.9067H150.013V22.191H145.892V24.1698H149.837V25.4661H145.892V27.7227H150.184V29.015H144.376ZM154.504 20.9067V29.015L157.759 29.0069C159.389 29.0069 160.929 28.4051 160.929 26.682C160.929 25.605 160.182 24.9447 159.117 24.7253C159.951 24.5059 160.692 23.9624 160.692 22.9559C160.692 21.4864 159.488 20.9067 157.926 20.9067H154.504ZM157.742 24.1838H155.995V22.2051H157.742C158.715 22.2051 159.131 22.5513 159.131 23.1552C159.131 23.8034 158.715 24.1838 157.742 24.1838ZM157.823 27.7368H155.995V25.4339H157.823C158.878 25.4339 159.375 25.7741 159.375 26.5793C159.375 27.3342 158.878 27.7368 157.823 27.7368ZM162.505 29.015V20.9067H164.021V27.7227H168.093V29.015H162.505ZM169.319 20.9067V29.015H175.129V27.7227H170.835V25.4661H174.78V24.1698H170.835V22.191H174.956V20.9067H169.319ZM176.667 25.917V20.9067H178.194V25.6855C178.194 27.1892 178.798 27.93 179.964 27.93C181.129 27.93 181.735 27.1671 181.735 25.6855V20.9067H183.251V25.917C183.251 28.0226 182.023 29.2143 179.964 29.2143C177.905 29.2143 176.667 28.0226 176.667 25.917ZM102.77 31.6963V39.7945L108.579 39.8026V38.5183H104.286V36.2617H108.231V34.9593H104.286V32.9806H108.406V31.6963H102.77ZM112.108 39.7945V32.9806H109.401V31.6963H116.319V32.9806H113.624V39.7945H112.108ZM119.88 31.6963V39.7945H121.398V36.3926H125.273V35.1083H121.398V32.9806H125.492V31.6963H119.88ZM126.986 39.7945V31.6963H130.573C132.089 31.6963 133.19 32.4129 133.19 33.824C133.19 34.9352 132.415 35.5713 131.64 35.8028C132.564 35.9658 133.063 36.6362 133.063 37.6769V39.7945H131.535V37.8158C131.535 36.8556 131.187 36.5093 130.205 36.5093H128.504V39.7945H126.986ZM128.502 35.213H130.283C131.175 35.213 131.626 34.8305 131.626 34.1018C131.626 33.3731 131.175 32.9806 130.283 32.9806H128.502V35.213ZM139.95 37.5803L140.755 39.7945H142.462L139.128 31.6963H137.393L134.064 39.7945H135.674L136.497 37.5803H139.95ZM139.471 36.3H136.971L137.896 33.7777C138.031 33.4456 138.128 33.1758 138.233 32.8417C138.325 33.1738 138.418 33.4436 138.545 33.7777L139.471 36.3ZM143.543 39.7945V31.6963H145.822L149.316 37.7936C149.282 37.4454 149.27 37.0066 149.27 36.5858V31.6963H150.786V39.7945H148.795L145.012 33.1879C145.049 33.5645 145.064 33.9429 145.059 34.3212V39.7945H143.543ZM156.384 31.487C154.095 31.487 152.358 33.0832 152.358 35.688C152.358 38.4418 153.9 40.0039 156.301 40.0039C158.477 40.0039 159.826 38.7417 160.027 36.8677H158.511C158.452 37.393 158.196 37.8763 157.794 38.22C157.393 38.5638 156.876 38.7423 156.347 38.7196C154.936 38.7196 153.918 37.5742 153.918 35.688C153.918 33.8703 154.948 32.7712 156.384 32.7712C157.575 32.7712 158.27 33.4899 158.419 34.5427H159.993C159.786 32.6203 158.362 31.487 156.384 31.487ZM161.487 39.7945V31.6963H167.123V32.9806H163.002V34.9593H166.948V36.2617H163.002V38.5183H167.296V39.8026L161.487 39.7945ZM176.956 37.3769C176.956 36.3242 176.342 35.364 174.817 35.0982L176.62 33.1618V31.6923H171.449V33.0792H174.931L173.162 34.9654V36.1007C174.468 36.0222 175.475 36.308 175.475 37.4313C175.475 38.2284 174.873 38.7619 174.005 38.7619C172.999 38.7619 172.455 38.1358 172.455 37.1756H170.986C170.998 38.9511 172.097 39.9938 174.005 39.9938C175.731 39.9938 176.956 38.9048 176.956 37.3769Z" fill="black"/>
</g>
<defs>
<clipPath id="clip0_4265_5119">
<rect width="184" height="40" fill="white"/>
</clipPath>
</defs>
</svg>
